<svg width="168" height="199" viewBox="0 0 168 199" fill="none" xmlns="http://www.w3.org/2000/svg">
<path d="M83.2004 88.0248L79.4984 82.4275C79.1579 81.912 78.4628 81.7702 77.9435 82.1091C77.4257 82.4495 77.2832 83.1415 77.6236 83.6569L81.3256 89.2542C81.6676 89.7697 82.3628 89.9115 82.8805 89.5726C83.3983 89.2322 83.5408 88.5402 83.2004 88.0248Z" fill="#54865C"/>
<path d="M77.6268 57.9135L82.7522 62.2593C83.2241 62.6596 83.2811 63.3642 82.8789 63.834C82.4767 64.3037 81.769 64.3604 81.2971 63.9601L76.1716 59.6143C75.6998 59.2139 75.6428 58.5093 76.0449 58.0396C76.4471 57.5699 77.1565 57.5131 77.6268 57.9135Z" fill="#54865C"/>
<path d="M75.3815 113.37L73.1378 109.5C72.8275 108.965 72.1418 108.783 71.6051 109.092C71.0683 109.4 70.8846 110.083 71.195 110.617L73.4387 114.487C73.749 115.021 74.4346 115.204 74.9714 114.895C75.5082 114.586 75.6919 113.904 75.3815 113.37Z" fill="#54865C"/>
<path d="M93.8282 98.3681L91.7999 102.353C91.5196 102.903 90.8451 103.124 90.2925 102.845C89.7399 102.566 89.5182 101.894 89.7985 101.344L91.8268 97.3593C92.1071 96.8092 92.7816 96.5885 93.3342 96.8675C93.8884 97.1465 94.1085 97.818 93.8282 98.3681Z" fill="#54865C"/>
<path d="M91.7698 68.7345L89.7415 72.7193C89.4612 73.2694 88.7867 73.4901 88.234 73.2111C87.6814 72.9321 87.4598 72.2606 87.74 71.7105L89.7684 67.7257C90.0486 67.1756 90.7232 66.9549 91.2758 67.2339C91.83 67.5129 92.0501 68.1844 91.7698 68.7345Z" fill="#54865C"/>
<path fill-rule="evenodd" clip-rule="evenodd" d="M51.3025 160.67C61.6596 165.03 72.6612 167.241 84 167.241C95.3388 167.241 106.34 165.03 116.697 160.67C126.7 156.458 135.683 150.429 143.397 142.749C151.111 135.072 157.168 126.128 161.399 116.171C165.778 105.86 168 94.9083 168 83.6207C168 72.3331 165.78 61.3812 161.399 51.0709C157.168 41.1137 151.111 32.1715 143.397 24.492C135.684 16.8124 126.7 10.7832 116.697 6.57144C106.34 2.2115 95.3388 0 84 0C72.6612 0 61.6596 2.2115 51.3025 6.57144C41.3001 10.7832 32.3174 16.814 24.6031 24.492C16.8887 32.1699 10.8321 41.1137 6.60124 51.0709C2.22153 61.3812 0 72.3331 0 83.6207C0 94.9083 2.22153 105.86 6.60124 116.171C10.8321 126.128 16.8887 135.07 24.6031 142.749C32.3159 150.429 41.3001 156.458 51.3025 160.67ZM3.95853 83.6207C3.95853 39.6856 39.8656 3.94066 84 3.94066C128.134 3.94066 164.041 39.6856 164.041 83.6207C164.041 114.579 146.214 141.47 120.242 154.655L120.557 125.483L124.597 121.461C125.036 121.025 125.036 120.318 124.597 119.881C124.158 119.444 123.449 119.444 123.011 119.881L120.591 122.289L120.726 109.867L124.597 106.013C125.036 105.578 125.036 104.87 124.597 104.434C124.158 103.997 123.449 103.997 123.011 104.434L120.76 106.674L120.867 96.7627L132.283 96.6044L132.383 96.5934C136.205 96.1527 139.61 94.1725 142 91.0098L145.124 94.4576C145.539 94.9147 146.25 94.951 146.709 94.5396C147.17 94.1266 147.207 93.4204 146.792 92.9617L143.703 89.5532L146.274 89.0793C146.884 88.9674 147.286 88.3842 147.173 87.7773C147.061 87.1704 146.475 86.7701 145.865 86.882L144.11 87.2056C145.035 84.7944 145.368 82.1484 145.056 79.4736C144.685 76.2872 143.432 73.3487 141.466 70.9771C144.65 70.885 148.493 70.2082 150.616 67.773C152.836 65.2274 152.335 62.4862 150.855 60.8989C149.01 58.9207 145.167 58.2161 141.68 60.8075C141.303 61.0884 140.932 61.359 140.568 61.6221C140.892 59.6809 140.838 57.6716 139.947 56.0173C138.458 53.2541 135.89 52.7859 134.006 53.5457C131.683 54.4836 129.805 57.5447 130.901 61.3718C131.167 62.3003 131.399 63.1798 131.624 64.031L131.625 64.0355L131.626 64.0382L131.629 64.0505L131.63 64.0529L131.63 64.0544L131.632 64.0607C131.788 64.6513 131.933 65.1992 132.074 65.7049C130.992 65.5706 129.89 65.5647 128.784 65.6923L128.689 65.7033L117.848 68.026C116.558 65.066 114.886 62.2677 112.859 59.6917L116.522 56.0455C116.96 55.6105 116.96 54.9027 116.522 54.4661C116.083 54.0295 115.374 54.0295 114.935 54.4661L111.419 57.9668C110.874 57.3514 110.307 56.7506 109.719 56.1654C106.999 53.457 103.943 51.2031 100.645 49.4422L102.379 46.0363C102.659 45.4862 102.439 44.8147 101.885 44.5357C101.332 44.2567 100.658 44.4774 100.377 45.0275L98.6376 48.445C93.631 46.1385 88.1373 44.9235 82.4562 44.9235C80.4592 44.9235 78.4854 45.0736 76.5478 45.3685L73.6397 40.9717C73.2993 40.4563 72.6042 40.3144 72.0848 40.6533C71.567 40.9938 71.4245 41.6858 71.765 42.2012L74.1523 45.8107C70.9171 46.514 67.8018 47.6283 64.8701 49.1273L55.7677 40.0954L55.6902 40.0323C55.6647 40.0117 55.6391 39.9912 55.6135 39.9708L55.5534 39.923L56.9348 37.2092C57.215 36.6591 56.9949 35.9876 56.4407 35.7086C55.8881 35.4296 55.2136 35.6503 54.9333 36.2004L53.6821 38.6584C50.7136 36.9605 47.2326 36.3122 43.6562 36.8262C39.2971 37.4536 35.3132 39.7376 32.4393 43.259C31.5969 44.2916 30.8874 45.3867 30.3095 46.5217L26.7312 42.9595C26.2941 42.5244 25.5832 42.5244 25.1446 42.9595C24.706 43.3961 24.706 44.1023 25.1446 44.5389L28.1293 47.5101H25.599C24.9799 47.5101 24.478 48.0114 24.4764 48.6277C24.4764 49.2456 24.9799 49.7453 25.599 49.7453H29.0451C27.3222 55.8312 29.0061 62.4146 33.8908 66.4618L32.9951 66.6838C32.3935 66.832 32.0277 67.4388 32.1765 68.0362C32.327 68.6352 32.935 69.0009 33.5367 68.8512L36.3902 68.1449L45.0662 73.8738C44.2965 76.9203 43.9001 80.0826 43.9001 83.3055L43.9705 91.331L41.4569 88.8287C41.0199 88.3937 40.3089 88.3937 39.8703 88.8287C39.4317 89.2653 39.4317 89.9715 39.8703 90.4081L43.9984 94.5176L44.2355 121.544L41.7736 119.093C41.3365 118.658 40.6256 118.658 40.187 119.093C39.7484 119.53 39.7484 120.236 40.187 120.672L44.2634 124.73L44.5106 152.911C20.3117 139.19 3.95853 113.271 3.95853 83.6207ZM48.488 155.021L47.8586 83.2976C47.8612 67.9959 57.9386 54.9961 71.8333 50.5243C70.2603 52.2204 68.8055 54.2894 67.5024 56.706C63.9963 63.2071 61.9204 71.6195 61.569 80.6349L58.8744 77.9525C58.4374 77.5175 57.7264 77.5175 57.2878 77.9525C56.8492 78.3891 56.8492 79.0953 57.2878 79.5319L61.5202 83.7452L61.7133 108.197L60.0303 107.23C59.4935 106.921 58.8063 107.104 58.4976 107.638C58.1872 108.173 58.3709 108.855 58.9077 109.164L61.7337 110.788L62.1244 160.276C57.3864 158.934 52.8261 157.168 48.488 155.021ZM66.0911 161.29L65.86 132.014L70.1277 127.766C70.5663 127.331 70.5663 126.623 70.1277 126.186C69.6891 125.75 68.9798 125.75 68.5411 126.186L65.8353 128.88L65.4761 83.3711L65.4741 83.3711C65.4759 73.9689 67.4344 65.1612 70.9891 58.5692C74.2575 52.5082 78.4453 49.1057 82.8124 48.9486C84.1746 48.9976 85.5192 49.3623 86.824 50.0249C89.7025 51.4867 92.3868 54.3986 94.6358 58.5692C98.1901 65.1622 100.149 73.9673 100.151 83.3686L99.5724 121.703L96.4694 119.072C95.9991 118.672 95.2897 118.729 94.8875 119.199C94.4854 119.668 94.5424 120.373 95.0142 120.773L99.5287 124.601L99.3591 135.844L99.6379 135.848L99.381 161.825C94.4021 162.793 89.2595 163.301 84 163.301C77.8454 163.301 71.8507 162.606 66.0911 161.29ZM103.349 160.947C107.812 159.84 112.129 158.359 116.262 156.539L117.054 83.2945C117.049 68.3767 107.468 55.6455 94.11 50.8744C95.5612 52.5026 96.9078 54.4533 98.1224 56.706C98.605 57.6007 99.0604 58.5317 99.488 59.4954C100.936 62.7582 102.064 66.3969 102.843 70.2792L104.876 66.7752C105.186 66.2409 105.872 66.058 106.408 66.367C106.945 66.6743 107.129 67.3584 106.819 67.8928L103.452 73.6966L103.447 73.7062L103.434 73.7266C103.88 76.8428 104.109 80.0827 104.109 83.3842V83.3956L104.115 83.3956L103.928 102.332L105.523 101.051C106.006 100.663 106.712 100.739 107.102 101.22C107.49 101.7 107.414 102.403 106.933 102.791L103.9 105.227L103.349 160.947ZM53.1187 43.032L61.3325 51.1818C60.55 51.694 59.7842 52.236 59.0367 52.8073L51.5131 45.6691L51.3959 45.5666C48.656 43.352 45.5977 41.7795 42.6464 41.0529C43.163 40.9128 43.6888 40.8039 44.2215 40.7275C47.5008 40.2562 50.6565 41.0743 53.1187 43.032ZM56.0066 55.3783C55.7322 55.6363 55.461 55.8986 55.193 56.1654C52.9316 58.4166 50.9856 60.8983 49.3773 63.5572L41.2146 57.9214C35.8445 53.5514 34.0452 48.0762 35.7281 45.7537C36.6491 44.7171 38.429 44.3212 40.6382 44.665C43.3047 45.0796 46.215 46.4682 48.8387 48.5773L56.0066 55.3783ZM46.2871 69.9517C46.6519 68.971 47.0572 68.006 47.5023 67.0586L38.8348 61.0739L38.7762 61.0266C35.8361 58.6489 33.6652 55.8752 32.4077 53.1333C32.0105 57.0497 33.3842 60.9351 36.4533 63.4588L46.2871 69.9517ZM120.91 92.8207L132.02 92.6669C135.07 92.2847 137.648 90.51 139.29 87.9855C137.129 89.1819 134.464 90.0348 131.502 90.3766L131.346 90.3876L120.932 90.7636L120.91 92.8207ZM140.982 80.0624C141.154 82.5378 137.208 85.7287 131.122 86.4532L120.975 86.8195L121.012 83.326V83.3055C121.012 81.4822 120.885 79.6784 120.636 77.9039L129.917 76.1145C135.985 75.4362 140.55 77.6234 140.982 80.0624ZM119.887 74.0353L129.314 72.218L129.389 72.2101C132.489 71.8524 135.402 72.1141 137.851 72.8618C135.638 70.5471 132.561 69.2536 129.33 69.5967L119.245 71.7574C119.483 72.5089 119.696 73.2684 119.887 74.0353ZM135.493 57.1979C135.553 57.1742 135.611 57.1616 135.671 57.1616C135.938 57.1616 136.202 57.4012 136.458 57.8804C137.223 59.3006 136.599 61.9267 135.749 64.1429C135.646 63.7677 135.546 63.3879 135.451 63.0301C135.233 62.1994 134.984 61.2599 134.707 60.2921C134.215 58.574 134.87 57.4485 135.493 57.1979ZM139.796 67.0353C142.803 67.1299 146.283 66.7295 147.628 65.1895C148.214 64.5165 148.324 63.9758 147.956 63.5802C147.379 62.9623 145.786 62.6738 144.049 63.9648C143.142 64.6394 142.249 65.2747 141.462 65.8342L141.361 65.906C140.851 66.2705 140.304 66.6612 139.796 67.0353Z" fill="#54865C"/>
<path d="M19.533 188.371L19.5504 198.757H20.4213L20.4039 186.62H19.6723L14.2206 196L8.76893 186.62H8.01998V198.757H8.89086V188.406L13.9942 197.145H14.4296L19.533 188.371Z" fill="#54865C"/>
<path d="M36.7415 197.96V198.757H28.3272V186.62H36.4786V187.418H29.2155V192.203H35.7123V192.983H29.2155V197.96H36.7415Z" fill="#54865C"/>
<path d="M44.5255 186.62H43.6372V198.757H44.5255V186.62Z" fill="#54865C"/>
<path d="M62.3611 186.62V198.757H61.6296L53.3214 188.215V198.757H52.4331V186.62H53.1821L61.4728 197.162V186.62H62.3611Z" fill="#54865C"/>
<path d="M74.832 195.948C75.4131 196.908 76.2112 197.657 77.2277 198.194C78.2427 198.732 79.3891 199 80.6669 198.998C81.7816 198.998 82.7855 198.801 83.6801 198.409C84.5747 198.016 85.3174 197.449 85.9096 196.71L83.715 194.733C82.9248 195.68 81.9669 196.155 80.8411 196.155C80.1776 196.155 79.5886 196.01 79.0724 195.721C78.5562 195.433 78.1556 195.026 77.8706 194.5C77.5872 193.973 77.4446 193.37 77.4446 192.687C77.4446 192.005 77.5856 191.401 77.8706 190.874C78.1556 190.349 78.5562 189.941 79.0724 189.653C79.5902 189.364 80.1792 189.219 80.8411 189.219C81.9669 189.219 82.9248 189.694 83.715 190.641L85.9096 188.664C85.3174 187.925 84.5747 187.358 83.6801 186.965C82.7855 186.573 81.7816 186.376 80.6669 186.376C79.3907 186.376 78.2443 186.645 77.2277 187.183C76.2112 187.722 75.4131 188.469 74.832 189.429C74.2509 190.389 73.9612 191.475 73.9612 192.689C73.9612 193.902 74.2509 194.988 74.832 195.948Z" fill="#54865C"/>
<path fill-rule="evenodd" clip-rule="evenodd" d="M99.0598 196.399H93.9042L92.9463 198.757H89.4279L94.8099 186.62H98.2063L103.606 198.757H100.018L99.0598 196.399ZM98.0496 193.868L96.482 189.984L94.9144 193.868H98.0496Z" fill="#54865C"/>
<path d="M108.309 195.948C108.89 196.908 109.688 197.657 110.704 198.194C111.719 198.732 112.866 199 114.143 198.998C115.258 198.998 116.262 198.801 117.157 198.409C118.051 198.016 118.794 197.449 119.386 196.71L117.191 194.733C116.401 195.68 115.443 196.155 114.318 196.155C113.656 196.155 113.067 196.01 112.55 195.721C112.034 195.433 111.632 195.026 111.349 194.5C111.064 193.973 110.921 193.37 110.921 192.687C110.921 192.005 111.064 191.401 111.349 190.874C111.634 190.349 112.034 189.941 112.55 189.653C113.067 189.364 113.656 189.219 114.318 189.219C115.443 189.219 116.401 189.694 117.191 190.641L119.386 188.664C118.794 187.925 118.051 187.358 117.157 186.965C116.262 186.573 115.258 186.376 114.143 186.376C112.867 186.376 111.721 186.645 110.704 187.183C109.688 187.722 108.89 188.469 108.309 189.429C107.727 190.389 107.438 191.475 107.438 192.689C107.438 193.902 107.727 194.988 108.309 195.948Z" fill="#54865C"/>
<path d="M127.067 189.342H123.322V186.62H134.243V189.342H130.516V198.757H127.067V189.342Z" fill="#54865C"/>
<path d="M138.894 193.348C138.894 195.151 139.397 196.544 140.401 197.526C141.405 198.51 142.813 199 144.624 199C146.436 199 147.845 198.508 148.849 197.526C149.853 196.544 150.354 195.151 150.354 193.348V186.62H146.958V193.243C146.958 195.185 146.192 196.156 144.659 196.156C143.115 196.156 142.342 195.185 142.342 193.243V186.62H138.894V193.348Z" fill="#54865C"/>
<path d="M157.757 198.636C156.827 198.393 156.074 198.07 155.493 197.665L156.625 195.133C157.171 195.491 157.803 195.781 158.523 196C159.244 196.219 159.952 196.33 160.648 196.33C161.972 196.33 162.634 196 162.634 195.341C162.634 194.995 162.445 194.738 162.067 194.569C161.69 194.402 161.084 194.226 160.246 194.041C159.329 193.844 158.563 193.634 157.947 193.409C157.331 193.184 156.804 192.823 156.362 192.325C155.92 191.828 155.7 191.157 155.7 190.313C155.7 189.574 155.903 188.906 156.31 188.31C156.717 187.714 157.323 187.244 158.129 186.897C158.937 186.551 159.926 186.377 161.099 186.377C161.901 186.377 162.689 186.467 163.468 186.647C164.246 186.827 164.931 187.088 165.524 187.435L164.461 189.984C163.3 189.36 162.173 189.047 161.082 189.047C160.396 189.047 159.898 189.148 159.584 189.35C159.271 189.552 159.114 189.815 159.114 190.138C159.114 190.461 159.299 190.704 159.671 190.866C160.043 191.029 160.64 191.196 161.465 191.369C162.395 191.566 163.164 191.776 163.774 192.003C164.383 192.228 164.912 192.586 165.359 193.078C165.805 193.57 166.029 194.237 166.029 195.081C166.029 195.81 165.826 196.469 165.419 197.058C165.012 197.648 164.402 198.119 163.59 198.47C162.778 198.823 161.79 199 160.629 199C159.644 199 158.686 198.879 157.757 198.636Z" fill="#54865C"/>
</svg>
